<svg xmlns="http://www.w3.org/2000/svg" viewBox="0 0 32 32">
  <!-- Background -->
  <rect width="32" height="32" rx="6" fill="#1C1917"/>

  <!-- Roof with upswept eaves -->
  <path d="M16 3 C14 5 10 8 6 11 Q3 12 2 14 L5 13 L16 5 L27 13 L30 14 Q29 12 26 11 C22 8 18 5 16 3 Z"
        fill="#DC2626"/>

  <!-- Hall body -->
  <rect x="7" y="13" width="18" height="11" fill="#292524"/>

  <!-- Red columns -->
  <rect x="7"  y="13" width="2.5" height="11" fill="#991B1B"/>
  <rect x="22.5" y="13" width="2.5" height="11" fill="#991B1B"/>

  <!-- Arched gate -->
  <path d="M13 24 L13 18.5 A3 3 0 0 1 19 18.5 L19 24 Z" fill="#0C0A09"/>

  <!-- Stone platform -->
  <rect x="3" y="24" width="26" height="4" rx="1" fill="#3D3530"/>

  <!-- Gold ridge finial -->
  <circle cx="16" cy="3.5" r="1.5" fill="#D97706"/>
</svg>
